<?xml version="1.0" encoding="utf-8"?>
<!-- Generator: Adobe Illustrator 27.4.0, SVG Export Plug-In . SVG Version: 6.00 Build 0)  -->
<svg version="1.1" id="Layer_1" xmlns="http://www.w3.org/2000/svg" xmlns:xlink="http://www.w3.org/1999/xlink" x="0px" y="0px"
	 viewBox="0 0 100.6 100.6" style="enable-background:new 0 0 100.6 100.6;" xml:space="preserve">
<style type="text/css">
	.st0{fill:#FFFFFF;}
	.st1{fill:#9A5758;}
</style>
<rect x="0" y="-0.4" class="st0" width="101" height="101"/>
<g>
	<g>
		<path class="st1" d="M56.2,64.1c0-1.2-0.6-2.1-1.6-2.7c-0.4-0.2-0.4-0.4-0.4-0.8c0-1.3,0-2.6,0-3.9c0-0.9-0.5-1.2-1.4-1
			c-0.4,0.1-0.7,0.2-1,0.3c-0.4,0.1-0.6,0.1-0.8-0.3c-2-2.9-4.7-4.9-8-6c-0.1,0-0.3-0.1-0.4-0.2c4.9-3.3,5-9.6,1.5-13.2
			c-3.4-3.5-9.1-3.4-12.4,0.2c-3.3,3.6-3,9.7,1.8,13c-0.3,0.1-0.5,0.2-0.6,0.2c-2.9,1-5.4,2.7-7.3,5.2c-0.7,1-1.3,1.3-2.4,0.8
			c-0.9-0.4-1.4,0.1-1.4,1.1c0,1.3,0,2.6,0,3.9c0,0.3,0,0.5-0.4,0.7c-1.1,0.6-1.7,1.5-1.7,2.8c0,1.1,0,2.2,0,3.3
			c0,1.3,0.6,2.2,1.7,2.9c0.2,0.1,0.3,0.4,0.3,0.6c0,1.4,0,2.7,0,4.1c0,0.8,0.2,1,0.9,1.3c5,1.4,10,2.8,14.9,4.2
			c0.3,0.1,0.6,0.1,0.9,0c4.9-1.4,9.9-2.8,14.8-4.2c0.9-0.3,1-0.5,1-1.4c0-1.3,0-2.6,0-3.9c0-0.4,0.1-0.6,0.4-0.7
			c1-0.6,1.6-1.4,1.6-2.6C56.2,66.5,56.2,65.3,56.2,64.1z M31.2,42.3c0-3.6,3-6.6,6.6-6.6c3.6,0,6.6,2.9,6.6,6.6
			c0,3.6-2.9,6.6-6.6,6.6C34.2,48.9,31.2,45.9,31.2,42.3z M22.5,68.8c-0.6,0-1.1-0.5-1.1-1.1c0-0.6,0-1.2,0-1.8c0-0.6,0-1.1,0-1.7
			c0-0.7,0.5-1.1,1.1-1.1c0.6,0,1.1,0.4,1.1,1.1c0,1.2,0,2.4,0,3.6C23.5,68.3,23.1,68.8,22.5,68.8z M36.9,77.8c0,0.2,0,0.3,0,0.5
			c-1-0.3-1.9-0.5-2.8-0.8c-3.3-0.9-6.7-1.9-10-2.8c-0.4-0.1-0.6-0.3-0.6-0.7c0-1,0-2.1,0-3.1c0-0.2,0.2-0.5,0.3-0.6
			c1.1-0.6,1.7-1.6,1.7-2.9c0-1.1,0-2.2,0-3.3c0-1.3-0.6-2.2-1.7-2.9c-0.2-0.1-0.3-0.3-0.3-0.5c0-1,0-1.9,0-3c1.8,0.5,3.5,1,5.1,1.4
			c2.6,0.7,5.2,1.5,7.7,2.2c0.4,0.1,0.6,0.2,0.6,0.7C36.9,67.4,36.9,72.6,36.9,77.8z M38.2,59.9c-0.2,0-0.4,0.1-0.5,0.1
			c-3.7-1-7.4-2.1-11.3-3.2c3.1-4,7.1-6.1,12.1-5.8c4.5,0.2,8,2.2,10.8,5.8c-1.2,0.3-2.3,0.7-3.4,1C43.3,58.4,40.7,59.1,38.2,59.9z
			 M52.2,74.2c0,0.2-0.2,0.4-0.3,0.5c-4.3,1.2-8.6,2.4-12.9,3.6c0,0-0.1,0-0.2,0c0-0.2,0-0.4,0-0.6c0-5.1,0-10.2,0-15.4
			c0-0.5,0.2-0.7,0.7-0.8c4-1.1,8.1-2.3,12.1-3.4c0.2-0.1,0.4-0.1,0.7-0.2c0,1.1,0,2,0,3c0,0.1-0.2,0.4-0.3,0.4
			c-1.2,0.6-1.7,1.6-1.7,2.9c0,1.1,0,2.1,0,3.2c0,1.3,0.5,2.3,1.7,2.9c0.2,0.1,0.3,0.3,0.3,0.5C52.2,72,52.2,73.1,52.2,74.2z
			 M54.2,67.7c0,0.6-0.5,1.1-1.1,1.1c-0.6,0-1-0.4-1-1c0-1.2,0-2.5,0-3.7c0-0.6,0.5-1,1.1-1c0.6,0,1,0.4,1,1c0,0.6,0,1.2,0,1.8
			C54.2,66.5,54.3,67.1,54.2,67.7z"/>
	</g>
	<g>
		<path class="st1" d="M54.7,49c0.3,1.6,0.4,3.2,0.5,4.9c0.1,1.1,0.3,2,1.3,2.6c0.4,0.2,0.5,0.5,0.5,1c0,1,0.3,1.9,1.1,2.4
			c0.6,0.4,0.7,0.8,0.7,1.4c0,1.3,0.9,2.4,2.2,2.6c0.5,0.1,1,0.1,1.6,0.1c0,0,0,0,0,0c0.3,0,0.6,0,1,0c1.7,0,2.8-1.1,2.9-2.9
			c0-0.3,0-0.7,0.2-0.8c1.2-0.7,1.6-1.7,1.6-3c0-0.2,0.1-0.4,0.3-0.5c1-0.6,1.4-1.5,1.4-2.6c0-1.3,0.1-2.7,0.3-4
			c0.3-2.1,1.2-4,2.3-5.8c1.4-2.3,1.9-4.8,1.5-7.5c-0.8-5.8-6.2-10.2-12-9.9c-6.1,0.4-10.9,5.2-11,11.2c-0.1,2.2,0.5,4.2,1.6,6.1
			C53.5,45.6,54.5,47.2,54.7,49z M63.2,61.9c-0.4,0-0.8,0-1.2,0c-1.2,0-1.4-0.2-1.2-1.5c1.2,0,2.4,0,3.6,0
			C64.6,61.5,64.3,61.8,63.2,61.9z M65,58.4c-1.6,0-3.2,0-4.8,0c-1.2,0-1.4-0.2-1.2-1.5c2.4,0,4.8,0,7.1,0
			C66.3,58.1,66.1,58.4,65,58.4z M66.6,55c-2.7,0-5.5,0-8.2,0c-1.1,0-1.4-0.3-1.2-1.5c3.5,0,7.1,0,10.6,0C68.1,54.6,67.8,55,66.6,55
			z M59.7,39.8c-0.6,0-1,0-1.5,0c-0.8-0.1-1.4-0.7-1.4-1.5c0-0.8,0.6-1.4,1.4-1.5c0.8-0.1,1.5,0.5,1.6,1.4
			C59.8,38.7,59.7,39.2,59.7,39.8z M61.7,51.5c0-3.2,0-6.4,0-9.7c0.5,0,1.1,0,1.6,0c0,3.2,0,6.4,0,9.7
			C62.8,51.5,62.3,51.5,61.7,51.5z M65.4,38.2c0.1-0.8,0.7-1.3,1.4-1.4c0.7,0,1.3,0.5,1.5,1.2c0.1,0.8-0.2,1.5-1,1.7
			c-0.6,0.1-1.2,0.1-1.9,0.2C65.3,39.2,65.3,38.7,65.4,38.2z M54.9,32.4c2.4-3.3,6.9-4.6,10.8-3.3c4,1.4,6.5,5.1,6.5,9.3
			c0,1.8-0.5,3.3-1.4,4.8c-1.1,1.8-2,3.8-2.4,5.9c-0.1,0.8-0.3,1.5-0.4,2.4c-0.9,0-1.7,0-2.5,0c0-3.2,0-6.4,0-9.7c0.5,0,1,0,1.5,0
			c1.8-0.1,3.3-1.4,3.4-3.2c0.1-1.7-1.1-3.3-2.9-3.6c-1.9-0.3-3.8,1.2-3.9,3.2c0,0.5,0,1.1,0,1.7c-0.6,0-1.1,0-1.7,0
			c0-0.5,0-1,0-1.5c-0.1-2.8-3-4.3-5.3-2.9c-1.3,0.8-1.9,2.3-1.5,3.8c0.4,1.5,1.7,2.5,3.2,2.5c0.5,0,1,0,1.5,0c0,3.3,0,6.5,0,9.7
			c-0.9,0-1.7,0-2.5,0c-0.2-1.1-0.3-2.1-0.6-3.1c-0.4-2-1.4-3.7-2.4-5.5C52.1,39.2,52.5,35.7,54.9,32.4z"/>
	</g>
	<g>
		<path class="st1" d="M77.3,66.2c-0.4,0-0.8,0-1.2,0c-5.2,0-10.4,0-15.7,0c-2,0-3.7,1.3-4.1,3.1c-0.4,1.6,0.1,2.9,1.3,4.1
			c0,0,0,0.1-0.1,0.1c-1.3,1.3-1.7,2.9-1,4.7c0.8,1.7,2.2,2.5,4.1,2.5c2.6,0,5.2,0,7.7,0c2.9,0,5.8,0,8.7,0c0.8,0,1.2-0.3,1.2-1
			c0-4.1,0-8.2,0-12.3C78.3,66.6,77.9,66.3,77.3,66.2z M76.3,75.6c-1,0-2,0-3,0c-0.2,0-0.5,0-0.7,0c-0.6,0-1.1,0.5-1.1,1
			c0,0.5,0.4,0.9,1.1,0.9c1,0,2.1,0,3.1,0c0.2,0,0.4,0,0.6,0c0,0.4,0,0.8,0,1.1c-0.1,0-0.3,0-0.4,0c-5.2,0-10.4,0-15.5,0
			c-1,0-1.9-0.6-2.2-1.5c-0.3-0.8-0.1-1.8,0.7-2.3c0.4-0.3,0.9-0.5,1.3-0.5c5.3,0,10.6,0,15.9,0c0,0,0.1,0,0.2,0
			C76.3,74.8,76.3,75.2,76.3,75.6z M76.3,69.4c-1,0-1.9,0-2.8,0c-0.3,0-0.6,0-0.9,0c-0.6,0-1,0.4-1.1,0.9c0,0.6,0.4,1,1.1,1
			c1,0,2,0,3,0c0.2,0,0.4,0,0.7,0c0,0.4,0,0.8,0,1.1c-0.1,0-0.2,0-0.4,0c-5.2,0-10.4,0-15.5,0c-0.4,0-0.8-0.1-1.2-0.3
			c-0.9-0.4-1.3-1.4-1.1-2.3c0.2-0.9,1-1.6,2-1.7c0.6,0,1.3,0,1.9,0c4.5,0,9,0,13.6,0c0.2,0,0.4,0,0.7,0
			C76.3,68.6,76.3,68.9,76.3,69.4z"/>
	</g>
	<g>
		<path class="st1" d="M46,31.6c0.7,0.4,1.4,0.8,2.1,1.2c0.5,0.3,1.1,0.1,1.4-0.4c0.3-0.5,0.1-1-0.4-1.3c-0.7-0.4-1.4-0.8-2.1-1.2
			c-0.1-0.1-0.3-0.1-0.6-0.2c-0.2,0.2-0.6,0.4-0.7,0.7C45.4,30.9,45.6,31.4,46,31.6z"/>
	</g>
	<g>
		<path class="st1" d="M79.3,30.3c-0.3-0.4-0.7-0.6-1.2-0.4c-0.8,0.4-1.6,0.9-2.4,1.4c-0.2,0.2-0.4,0.7-0.3,1
			c0.1,0.3,0.5,0.5,0.7,0.8c0,0,0.1-0.1,0.1-0.1c0.1,0,0.2,0,0.3-0.1c0.9-0.5,1.7-0.9,2.5-1.5C79.6,31.2,79.6,30.7,79.3,30.3z"/>
	</g>
	<g>
		<path class="st1" d="M53.9,26.9c0.2,0.2,0.7,0.3,1,0.2c0.3-0.1,0.5-0.5,0.7-0.7c-0.1-0.3-0.1-0.3-0.1-0.4c-0.5-0.9-1-1.8-1.5-2.6
			c-0.3-0.4-0.7-0.4-1.1-0.1c-0.4,0.2-0.6,0.6-0.4,1C52.8,25.2,53.3,26,53.9,26.9z"/>
	</g>
	<g>
		<path class="st1" d="M61.6,24.1c0,0.6,0.4,0.9,0.9,1c0.5,0,1-0.3,1-0.8c0-0.9,0-1.8,0-2.7c0-0.5-0.5-0.9-1-0.9
			c-0.5,0-0.9,0.4-0.9,0.9c0,0.4,0,0.8,0,1.3C61.6,23.2,61.6,23.7,61.6,24.1z"/>
	</g>
	<g>
		<path class="st1" d="M70.7,27.2c0.1-0.1,0.4-0.2,0.6-0.4c0.5-0.7,0.9-1.5,1.3-2.2c0.3-0.5,0.1-1-0.4-1.3c-0.4-0.3-1-0.2-1.3,0.3
			c-0.5,0.7-0.9,1.5-1.3,2.3C69.3,26.5,69.8,27.2,70.7,27.2z"/>
	</g>
</g>
</svg>
